HIERARCHY
ROOT Hips
{
	OFFSET 0.000000 83.214638 0.000000
	CHANNELS 6 Xposition Yposition Zposition Xrotation Yrotation Zrotation
	JOINT Pelvis
	{
		OFFSET 0.000000 0.000000 0.000000
		CHANNELS 3 Xrotation Yrotation Zrotation
		JOINT LeftUpLeg
		{
			OFFSET 8.479700 -4.795502 -0.379100
			CHANNELS 3 Xrotation Yrotation Zrotation
			JOINT LeftLeg
			{
				OFFSET 0.024144 -32.555107 0.112900
				CHANNELS 3 Xrotation Yrotation Zrotation
				JOINT LeftFoot
				{
					OFFSET -0.024144 -32.638630 -3.012600
					CHANNELS 3 Xrotation Yrotation Zrotation
					JOINT LeftToeBase
					{
						OFFSET 0.970200 -13.225400 11.864200
						CHANNELS 3 Xrotation Yrotation Zrotation
						End Site
						{
							OFFSET 0.000000 12.319262 0.000000
						}
					}
					JOINT LFootTongue
					{
						OFFSET 1.142400 -1.059800 6.665200
						CHANNELS 3 Xrotation Yrotation Zrotation
						End Site
						{
							OFFSET 0.000000 12.319262 0.000000
						}
					}
				}
				JOINT LeftPantLeg
				{
					OFFSET 0.918482 -16.533964 -2.284700
					CHANNELS 3 Xrotation Yrotation Zrotation
					End Site
					{
						OFFSET 0.350399 24.744368 0.000000
					}
				}
			}
		}
		JOINT RightUpLeg
		{
			OFFSET -8.479700 -4.795502 -0.379100
			CHANNELS 3 Xrotation Yrotation Zrotation
			JOINT RightLeg
			{
				OFFSET -0.023144 -32.555092 0.112900
				CHANNELS 3 Xrotation Yrotation Zrotation
				JOINT RightFoot
				{
					OFFSET 0.023144 -32.638641 -3.012700
					CHANNELS 3 Xrotation Yrotation Zrotation
					JOINT RightToeBase
					{
						OFFSET -0.970200 -13.225400 11.864200
						CHANNELS 3 Xrotation Yrotation Zrotation
						End Site
						{
							OFFSET 0.000000 12.319244 0.000000
						}
					}
					JOINT RFootTongue
					{
						OFFSET -1.142200 -1.059800 6.665200
						CHANNELS 3 Xrotation Yrotation Zrotation
						End Site
						{
							OFFSET 0.000000 12.319243 0.000000
						}
					}
				}
				JOINT RightPantLeg
				{
					OFFSET -0.919482 -16.533978 -2.284800
					CHANNELS 3 Xrotation Yrotation Zrotation
					End Site
					{
						OFFSET -0.350400 24.744419 0.000000
					}
				}
			}
		}
	}
	JOINT Spine
	{
		OFFSET 0.000000 7.722000 1.166200
		CHANNELS 3 Xrotation Yrotation Zrotation
		JOINT Spine1
		{
			OFFSET 0.000000 12.024101 0.248800
			CHANNELS 3 Xrotation Yrotation Zrotation
			JOINT Spine2
			{
				OFFSET 0.000000 11.502998 -0.491200
				CHANNELS 3 Xrotation Yrotation Zrotation
				JOINT Neck
				{
					OFFSET 0.000000 18.430702 -3.123100
					CHANNELS 3 Xrotation Yrotation Zrotation
					JOINT Head
					{
						OFFSET 0.000000 9.051102 1.034000
						CHANNELS 3 Xrotation Yrotation Zrotation
						JOINT HairB
						{
							OFFSET 0.208400 24.786102 24.822300
							CHANNELS 3 Xrotation Yrotation Zrotation
							End Site
							{
								OFFSET 0.000000 32.263779 0.000000
							}
						}
						JOINT HairA
						{
							OFFSET -7.081100 24.428299 23.196600
							CHANNELS 3 Xrotation Yrotation Zrotation
							End Site
							{
								OFFSET 0.000000 32.263779 0.000000
							}
						}
						JOINT Hat
						{
							OFFSET 16.728800 15.048294 -15.439601
							CHANNELS 3 Xrotation Yrotation Zrotation
							End Site
							{
								OFFSET 0.000000 32.263779 0.000000
							}
						}
					}
				}
				JOINT LeftShoulder
				{
					OFFSET 6.197800 13.665199 -4.064700
					CHANNELS 3 Xrotation Yrotation Zrotation
					JOINT LeftArm
					{
						OFFSET 7.778100 -0.187103 -1.709300
						CHANNELS 3 Xrotation Yrotation Zrotation
						JOINT LeftForeArm
						{
							OFFSET 22.049376 0.000000 0.000000
							CHANNELS 3 Xrotation Yrotation Zrotation
							JOINT LeftHand
							{
								OFFSET 23.009392 0.000000 0.000000
								CHANNELS 3 Xrotation Yrotation Zrotation
								JOINT LeftHandThumb1
								{
									OFFSET 3.507191 -2.063065 3.133727
									CHANNELS 3 Xrotation Yrotation Zrotation
									JOINT LeftHandThumb2
									{
										OFFSET 3.101337 -1.790558 1.790558
										CHANNELS 3 Xrotation Yrotation Zrotation
										JOINT LeftHandThumb3
										{
											OFFSET 3.058640 -1.765907 1.765906
											CHANNELS 3 Xrotation Yrotation Zrotation
											End Site
											{
												OFFSET -0.415260 3.926476 -0.049563
											}
										}
									}
								}
								JOINT LeftHandIndex1
								{
									OFFSET 11.334419 -0.901459 3.706815
									CHANNELS 3 Xrotation Yrotation Zrotation
									JOINT LeftHandIndex2
									{
										OFFSET 3.283112 0.000000 0.000000
										CHANNELS 3 Xrotation Yrotation Zrotation
										JOINT LeftHandIndex3
										{
											OFFSET 3.323853 0.000000 0.000000
											CHANNELS 3 Xrotation Yrotation Zrotation
											End Site
											{
												OFFSET -1.135597 3.097809 0.402452
											}
										}
									}
								}
								JOINT LeftHandMiddle1
								{
									OFFSET 11.335861 0.000000 0.000000
									CHANNELS 3 Xrotation Yrotation Zrotation
									JOINT LeftHandMiddle2
									{
										OFFSET 3.410492 0.000000 0.000000
										CHANNELS 3 Xrotation Yrotation Zrotation
										JOINT LeftHandMiddle3
										{
											OFFSET 3.312172 0.000000 0.000000
											CHANNELS 3 Xrotation Yrotation Zrotation
											End Site
											{
												OFFSET -1.150200 3.080154 0.400270
											}
										}
									}
								}
								JOINT LeftHandRing1
								{
									OFFSET 11.514786 -0.013176 -3.003090
									CHANNELS 3 Xrotation Yrotation Zrotation
									JOINT LeftHandRing2
									{
										OFFSET 3.053307 0.000000 0.000000
										CHANNELS 3 Xrotation Yrotation Zrotation
										JOINT LeftHandRing3
										{
											OFFSET 3.295807 0.000000 0.000000
											CHANNELS 3 Xrotation Yrotation Zrotation
											End Site
											{
												OFFSET -1.281006 3.013344 0.375733
											}
										}
									}
								}
								JOINT LeftHandPinky1
								{
									OFFSET 10.518692 -0.960396 -5.730441
									CHANNELS 3 Xrotation Yrotation Zrotation
									JOINT LeftHandPinky2
									{
										OFFSET 2.861649 0.000000 0.000000
										CHANNELS 3 Xrotation Yrotation Zrotation
										JOINT LeftHandPinky3
										{
											OFFSET 2.863380 0.000000 0.000000
											CHANNELS 3 Xrotation Yrotation Zrotation
											End Site
											{
												OFFSET -0.843597 2.711159 0.369971
											}
										}
									}
								}
							}
							JOINT LSleeve
							{
								OFFSET 6.676277 -0.344902 -1.011730
								CHANNELS 3 Xrotation Yrotation Zrotation
								End Site
								{
									OFFSET 0.000000 14.885353 0.000000
								}
							}
						}
					}
				}
				JOINT RightShoulder
				{
					OFFSET -6.197800 13.665199 -4.064700
					CHANNELS 3 Xrotation Yrotation Zrotation
					JOINT RightArm
					{
						OFFSET -7.778100 -0.187103 -1.709300
						CHANNELS 3 Xrotation Yrotation Zrotation
						JOINT RightForeArm
						{
							OFFSET -22.049376 0.000000 0.000000
							CHANNELS 3 Xrotation Yrotation Zrotation
							JOINT RightHand
							{
								OFFSET -23.009392 0.000000 0.000000
								CHANNELS 3 Xrotation Yrotation Zrotation
								JOINT RightHandThumb1
								{
									OFFSET -3.507191 -2.063065 3.133727
									CHANNELS 3 Xrotation Yrotation Zrotation
									JOINT RightHandThumb2
									{
										OFFSET -3.101337 -1.790558 1.790558
										CHANNELS 3 Xrotation Yrotation Zrotation
										JOINT RightHandThumb3
										{
											OFFSET -3.058640 -1.765907 1.765906
											CHANNELS 3 Xrotation Yrotation Zrotation
											End Site
											{
												OFFSET 0.415260 3.926476 -0.049563
											}
										}
									}
								}
								JOINT RightHandIndex1
								{
									OFFSET -11.334419 -0.901459 3.706815
									CHANNELS 3 Xrotation Yrotation Zrotation
									JOINT RightHandIndex2
									{
										OFFSET -3.283112 0.000000 0.000000
										CHANNELS 3 Xrotation Yrotation Zrotation
										JOINT RightHandIndex3
										{
											OFFSET -3.323853 0.000000 0.000000
											CHANNELS 3 Xrotation Yrotation Zrotation
											End Site
											{
												OFFSET 1.135597 3.097809 0.402452
											}
										}
									}
								}
								JOINT RightHandMiddle1
								{
									OFFSET -11.335861 0.000000 0.000000
									CHANNELS 3 Xrotation Yrotation Zrotation
									JOINT RightHandMiddle2
									{
										OFFSET -3.410492 0.000000 0.000000
										CHANNELS 3 Xrotation Yrotation Zrotation
										JOINT RightHandMiddle3
										{
											OFFSET -3.312172 0.000000 0.000000
											CHANNELS 3 Xrotation Yrotation Zrotation
											End Site
											{
												OFFSET 1.150200 3.080154 0.400270
											}
										}
									}
								}
								JOINT RightHandRing1
								{
									OFFSET -11.514786 -0.013176 -3.003090
									CHANNELS 3 Xrotation Yrotation Zrotation
									JOINT RightHandRing2
									{
										OFFSET -3.053307 0.000000 0.000000
										CHANNELS 3 Xrotation Yrotation Zrotation
										JOINT RightHandRing3
										{
											OFFSET -3.295807 0.000000 0.000000
											CHANNELS 3 Xrotation Yrotation Zrotation
											End Site
											{
												OFFSET 1.281006 3.013344 0.375733
											}
										}
									}
								}
								JOINT RightHandPinky1
								{
									OFFSET -10.518692 -0.960396 -5.730441
									CHANNELS 3 Xrotation Yrotation Zrotation
									JOINT RightHandPinky2
									{
										OFFSET -2.861649 0.000000 0.000000
										CHANNELS 3 Xrotation Yrotation Zrotation
										JOINT RightHandPinky3
										{
											OFFSET -2.863380 0.000000 0.000000
											CHANNELS 3 Xrotation Yrotation Zrotation
											End Site
											{
												OFFSET 0.843597 2.711159 0.369971
											}
										}
									}
								}
							}
							JOINT RSleeve
							{
								OFFSET -6.676277 -0.344902 -1.011730
								CHANNELS 3 Xrotation Yrotation Zrotation
								End Site
								{
									OFFSET 0.000000 14.885353 0.000000
								}
							}
						}
					}
				}
				JOINT Backpack
				{
					OFFSET 0.000000 -2.471497 36.677502
					CHANNELS 3 Xrotation Yrotation Zrotation
					End Site
					{
						OFFSET 0.000000 20.427315 0.000000
					}
				}
				JOINT Hood
				{
					OFFSET 0.000000 18.754097 -10.431000
					CHANNELS 3 Xrotation Yrotation Zrotation
					JOINT Hood1
					{
						OFFSET 0.000000 -5.011002 -7.685901
						CHANNELS 3 Xrotation Yrotation Zrotation
						End Site
						{
							OFFSET 0.000000 9.175140 0.000000
						}
					}
				}
				JOINT LHoodieString
				{
					OFFSET 5.250500 16.397697 3.089900
					CHANNELS 3 Xrotation Yrotation Zrotation
					JOINT LHoodieString1
					{
						OFFSET 0.257700 -6.364304 3.694600
						CHANNELS 3 Xrotation Yrotation Zrotation
						JOINT LHoodieString2
						{
							OFFSET 0.000000 -9.643799 2.679100
							CHANNELS 3 Xrotation Yrotation Zrotation
							End Site
							{
								OFFSET 0.000000 10.009018 0.000000
							}
						}
					}
				}
				JOINT RHoodieString
				{
					OFFSET -5.250500 16.397697 3.089900
					CHANNELS 3 Xrotation Yrotation Zrotation
					JOINT RHoodieString1
					{
						OFFSET -0.257700 -6.364304 3.694600
						CHANNELS 3 Xrotation Yrotation Zrotation
						JOINT RHoodieString2
						{
							OFFSET 0.000000 -9.643799 2.679100
							CHANNELS 3 Xrotation Yrotation Zrotation
							End Site
							{
								OFFSET 0.000000 10.009018 0.000000
							}
						}
					}
				}
			}
			JOINT LBackpack_Strap
			{
				OFFSET 15.223200 -7.719803 -6.610900
				CHANNELS 3 Xrotation Yrotation Zrotation
				End Site
				{
					OFFSET 0.000000 16.040596 0.000000
				}
			}
			JOINT RBackpack_Strap
			{
				OFFSET -15.223000 -7.719803 -6.610900
				CHANNELS 3 Xrotation Yrotation Zrotation
				End Site
				{
					OFFSET 0.000000 16.040596 0.000000
				}
			}
		}
	}
	JOINT BoyFacialAnim_Joint
	{
		OFFSET 1.000000 -82.208099 -1.550900
		CHANNELS 3 Xrotation Yrotation Zrotation
		End Site
		{
			OFFSET 0.000000 30.012791 0.000000
		}
	}
}
MOTION
Frames: 4
Frame Time: 0.016667
-0.250047 70.702080 0.244967 11.695784 -49.489546 11.290267 -0.000000 0.000000 0.000000 -64.578476 28.127943 42.220896 45.035996 -20.081205 3.175742 2.545502 0.952066 -10.119406 -0.000000 0.000000 -0.000000 -0.000000 0.000000 -0.000000 -0.000000 -0.000001 0.000001 -33.975465 -0.459172 -24.258090 53.259674 1.997463 -6.750486 -26.565792 -2.745317 24.293514 0.000000 -0.000000 0.000000 0.000000 -0.000000 0.000000 -0.000002 0.000001 -0.000002 10.973356 2.836681 -2.050337 6.100706 5.566525 -4.284678 -5.786915 6.328138 -3.046186 2.318311 9.363374 -0.265393 -4.146498 23.161921 -3.523236 -0.000002 -0.000000 -0.000000 -0.000002 -0.000000 -0.000000 -0.000002 -0.000000 -0.000000 -1.875351 -16.181758 -2.870482 -10.644677 2.164742 -45.510602 -22.862393 -25.786278 -15.871744 2.491049 -2.511845 6.860515 18.457963 -9.513790 13.216592 -1.150195 11.255351 -8.400840 -0.000003 -0.000002 0.000000 -1.232799 -5.771932 -0.192339 0.133940 -0.197636 -4.602124 0.000001 0.000001 -0.000003 1.884737 4.663382 -4.597405 0.476683 -1.009839 -12.986414 -0.000000 -0.000001 0.000002 3.024624 7.938948 -14.103471 -0.707998 -0.566231 -18.895734 -0.000001 -0.000004 -0.000001 2.010393 6.305956 -22.386529 -0.815398 -0.210762 -16.746481 0.000006 0.000001 -0.000000 -0.000000 -0.000000 0.000000 -5.074613 24.343749 1.482673 6.642347 -34.733735 57.610419 -21.032015 44.833819 19.961691 -0.087189 35.608488 7.474226 55.149512 18.649558 -29.698277 -0.442538 -14.180559 7.313152 -0.000001 0.000001 -0.000000 5.673383 7.585005 36.844154 1.050469 3.824510 68.900250 0.000000 0.000000 0.000004 -0.125712 1.886077 45.000776 -1.168990 3.204683 68.417650 0.000002 -0.000001 -0.000002 -5.312005 1.216615 58.508787 -0.745220 1.667574 48.011309 -0.000003 -0.000000 0.000000 -7.756841 -9.376452 47.264018 -0.526022 1.541556 45.600529 -0.000002 -0.000000 0.000000 -0.000003 0.000000 0.000000 0.000001 -0.000001 0.000001 0.000001 -0.000001 0.000001 0.000001 -0.000001 0.000001 0.000001 -0.000001 0.000001 0.000001 -0.000001 0.000001 -0.000001 0.000000 -0.000000 0.000001 -0.000001 0.000001 0.000001 -0.000001 0.000001 -0.000001 0.000000 -0.000000 -0.000001 -0.000002 0.000000 -0.000001 -0.000002 0.000000 -0.000000 0.000000 0.000000 
-0.235753 70.698761 0.364499 11.214891 -51.099971 10.928673 -0.000000 0.000001 -0.000000 -63.440798 27.767772 42.899298 45.668861 -20.146193 3.254167 1.404033 1.315477 -10.807343 -0.000000 0.000000 -0.000000 -0.000000 0.000000 0.000000 0.000000 0.000000 -0.000000 -33.964400 -0.210351 -24.117282 53.208984 2.887131 -6.718109 -26.434980 -2.063627 23.979648 -0.000000 -0.000002 -0.000000 -0.000000 -0.000002 -0.000000 -0.000000 -0.000001 -0.000000 10.991509 2.837983 -2.039363 6.138153 5.594447 -4.285145 -5.748709 6.468373 -2.981401 2.489923 9.336458 -0.252153 -3.932299 23.122432 -3.588220 -0.000000 0.000000 0.000000 -0.000000 0.000000 0.000000 -0.000000 0.000000 0.000000 -1.831975 -15.691455 -2.734874 -10.284166 1.988964 -45.432820 -22.867644 -26.152784 -16.049804 2.735573 -2.483702 6.839568 18.499212 -9.524841 13.108592 -1.077094 11.351619 -8.411978 0.000000 -0.000001 0.000001 -1.131493 -5.650990 -0.728758 0.094706 -0.195222 -5.161580 0.000001 0.000000 -0.000005 1.871901 4.626718 -5.322334 0.428611 -1.020173 -13.712000 0.000000 0.000000 0.000000 2.961964 7.871824 -14.814796 -0.750690 -0.567334 -19.622486 0.000000 0.000000 -0.000000 1.926228 6.257251 -23.049044 -0.855973 -0.211675 -17.424830 -0.000000 0.000000 -0.000000 0.000002 0.000000 0.000001 -5.284797 25.012602 1.987642 5.891140 -33.544166 56.610380 -21.351982 45.089852 20.683973 2.377832 34.175978 4.612018 55.149519 18.649555 -29.698274 -0.442536 -14.180561 7.313154 0.000000 -0.000002 -0.000001 5.673384 7.585005 36.844154 1.050470 3.824509 68.900257 -0.000000 0.000000 0.000002 -0.125713 1.886080 45.000773 -1.168992 3.204684 68.417650 0.000000 0.000002 -0.000003 -5.312005 1.216618 58.508794 -0.745221 1.667570 48.011305 -0.000002 -0.000001 0.000000 -7.756839 -9.376448 47.264018 -0.526023 1.541559 45.600529 -0.000001 0.000000 -0.000001 -0.000001 -0.000000 0.000000 -0.000000 0.000001 0.000001 -0.000000 0.000001 0.000001 -0.000000 0.000001 0.000001 -0.000000 0.000001 0.000001 -0.000000 0.000001 0.000001 -0.000000 0.000001 0.000000 -0.000000 0.000001 0.000001 -0.000000 0.000001 0.000001 -0.000000 0.000001 0.000000 0.000002 0.000001 -0.000001 0.000002 0.000001 -0.000001 -0.000000 0.000001 -0.000000 
-0.243329 70.681328 0.506663 10.670853 -52.634937 10.546753 0.000000 0.000002 -0.000000 -62.240133 26.935464 42.803365 47.457992 -19.265730 3.522585 -0.218255 2.255596 -9.939945 0.000000 0.000001 -0.000000 0.000000 0.000001 -0.000000 0.000000 0.000000 -0.000001 -33.704781 0.402449 -23.778457 53.160383 3.431169 -6.784892 -26.362664 -1.689905 23.875077 0.000000 -0.000000 -0.000000 0.000000 -0.000000 -0.000000 -0.000002 -0.000002 0.000002 11.042776 2.838551 -2.011978 6.244016 5.671753 -4.285773 -5.640077 6.608164 -2.917740 2.645278 9.260211 -0.213892 -3.676956 23.009495 -3.772380 0.000000 -0.000000 0.000000 0.000000 -0.000000 0.000000 0.000000 -0.000000 0.000000 -1.772853 -15.071253 -2.573301 -9.648144 1.877991 -45.209288 -22.751854 -26.556759 -16.251515 3.425992 -2.405861 6.778303 18.614352 -9.555892 12.806405 -0.869295 11.618017 -8.438091 0.000001 -0.000000 0.000001 -0.835815 -5.325752 -2.231415 -0.013381 -0.184473 -6.726216 -0.000002 0.000000 -0.000003 1.834803 4.529838 -7.349810 0.295680 -1.043531 -15.741544 -0.000000 -0.000001 -0.000002 2.782714 7.699100 -16.805740 -0.868378 -0.565357 -21.655180 0.000001 -0.000003 -0.000001 1.688323 6.136079 -24.903440 -0.968006 -0.209421 -19.322195 -0.000000 0.000001 -0.000000 0.000001 0.000000 0.000001 -5.414779 24.900595 2.343739 4.830029 -31.450443 55.681669 -21.606754 44.967411 21.111032 4.968145 32.756006 1.699193 55.149512 18.649553 -29.698277 -0.442537 -14.180555 7.313154 -0.000000 -0.000001 -0.000000 5.673384 7.585001 36.844158 1.050468 3.824509 68.900257 -0.000001 -0.000002 0.000003 -0.125711 1.886077 45.000773 -1.168991 3.204683 68.417650 -0.000002 -0.000001 0.000005 -5.312005 1.216616 58.508787 -0.745222 1.667564 48.011305 0.000001 -0.000003 0.000003 -7.756841 -9.376450 47.264018 -0.526020 1.541561 45.600532 -0.000001 0.000003 -0.000004 -0.000001 0.000003 -0.000004 0.000002 -0.000001 -0.000001 0.000002 -0.000001 -0.000001 0.000002 -0.000001 -0.000001 0.000002 -0.000001 -0.000001 0.000002 -0.000001 -0.000001 -0.000000 0.000003 -0.000001 0.000002 -0.000001 -0.000001 0.000002 -0.000001 -0.000001 -0.000000 0.000003 -0.000001 -0.000002 -0.000002 0.000001 -0.000002 -0.000002 0.000001 0.000000 0.000002 -0.000000 
-0.266418 70.638115 0.675313 10.070535 -54.120588 10.127964 0.000001 -0.000002 -0.000000 -61.127953 25.504498 42.221699 50.147597 -17.670823 3.922300 -1.907508 3.559523 -8.979761 0.000000 0.000000 0.000000 0.000000 0.000000 0.000000 -0.000000 0.000000 -0.000001 -33.259388 1.332609 -23.276112 53.146091 3.694729 -6.932839 -26.367182 -1.574905 23.950188 -0.000000 -0.000002 -0.000000 -0.000000 -0.000002 -0.000000 -0.000002 -0.000000 -0.000003 11.122277 2.843890 -1.960583 6.408563 5.788710 -4.285505 -5.470563 6.747022 -2.854224 2.788230 9.140433 -0.154535 -3.388276 22.831770 -4.057898 -0.000001 -0.000000 -0.000000 -0.000001 -0.000000 -0.000000 -0.000001 -0.000000 -0.000000 -1.680929 -14.154112 -2.352876 -8.774223 1.650384 -44.932099 -22.530357 -26.999733 -16.467757 4.497308 -2.288678 6.678751 18.789965 -9.604243 12.342662 -0.550073 12.026283 -8.480237 -0.000002 -0.000000 -0.000001 -0.348429 -4.866016 -4.542069 -0.174145 -0.156891 -9.125356 0.000003 0.000001 -0.000003 1.775568 4.397498 -10.459165 0.097250 -1.063957 -18.853824 0.000002 -0.000003 -0.000000 2.498708 7.477367 -19.862554 -1.042466 -0.547713 -24.771962 -0.000000 0.000002 -0.000000 1.318466 5.993286 -27.751371 -1.134452 -0.192162 -22.231451 0.000000 0.000000 -0.000000 -0.000001 0.000001 -0.000002 -5.461411 25.266478 2.495339 3.915310 -29.781530 55.120013 -21.873959 44.541989 21.371814 7.589045 31.575674 -1.256832 55.149512 18.649560 -29.698281 -0.442537 -14.180557 7.313153 0.000000 0.000000 0.000000 5.673376 7.585011 36.844161 1.050467 3.824506 68.900250 -0.000003 0.000000 0.000004 -0.125713 1.886080 45.000780 -1.168994 3.204683 68.417650 -0.000001 0.000003 0.000002 -5.312006 1.216618 58.508787 -0.745219 1.667569 48.011305 -0.000003 -0.000003 0.000002 -7.756844 -9.376447 47.264018 -0.526022 1.541560 45.600532 -0.000001 -0.000000 -0.000003 0.000001 0.000001 -0.000004 0.000002 0.000000 -0.000001 0.000002 0.000000 -0.000001 0.000002 0.000000 -0.000001 0.000002 0.000000 -0.000001 0.000002 0.000000 -0.000001 -0.000000 0.000000 -0.000001 0.000002 0.000000 -0.000001 0.000002 0.000000 -0.000001 -0.000000 0.000000 -0.000001 0.000003 -0.000000 0.000001 0.000003 -0.000000 0.000001 0.000001 -0.000002 -0.000000 
